<svg width="20" height="20" viewBox="0 0 20 20" fill="none" xmlns="http://www.w3.org/2000/svg">
<path d="M10 0C15.5228 0 20 4.47715 20 10C20 15.5228 15.5228 20 10 20C4.47715 20 0 15.5228 0 10C0 4.47715 4.47715 0 10 0ZM10 1.5C5.30558 1.5 1.5 5.30558 1.5 10C1.5 14.6944 5.30558 18.5 10 18.5C14.6944 18.5 18.5 14.6944 18.5 10C18.5 5.30558 14.6944 1.5 10 1.5ZM13.4462 6.39705L13.5303 6.46967C13.7966 6.73594 13.8208 7.1526 13.6029 7.44621L13.5303 7.53033L11.061 10L13.5303 12.4697C13.7966 12.7359 13.8208 13.1526 13.6029 13.4462L13.5303 13.5303C13.2641 13.7966 12.8474 13.8208 12.5538 13.6029L12.4697 13.5303L10 11.061L7.53033 13.5303C7.26406 13.7966 6.8474 13.8208 6.55379 13.6029L6.46967 13.5303C6.2034 13.2641 6.1792 12.8474 6.39705 12.5538L6.46967 12.4697L8.939 10L6.46967 7.53033C6.2034 7.26406 6.1792 6.8474 6.39705 6.55379L6.46967 6.46967C6.73594 6.2034 7.1526 6.1792 7.44621 6.39705L7.53033 6.46967L10 8.939L12.4697 6.46967C12.7359 6.2034 13.1526 6.1792 13.4462 6.39705Z" fill="currentColor"/>
</svg>
